<svg width="29" height="25" viewBox="0 0 29 25" fill="none" xmlns="http://www.w3.org/2000/svg">
<path d="M28.8964 4.35039C28.7894 4.25339 28.6303 4.24131 28.5099 4.32109C27.9777 4.67414 27.2603 4.85337 26.6641 4.94443C27.377 4.36293 28.2085 3.44893 28.203 2.27113C28.2025 2.15267 28.1356 2.04439 28.0298 1.99093C27.9241 1.93747 27.7972 1.94784 27.7015 2.01762C26.621 2.80612 25.0722 3.22029 24.5051 3.35255C24.1041 2.69171 22.7249 0.753906 20.3411 0.753906C20.2077 0.753906 20.0717 0.760217 19.9367 0.772569C16.9743 1.04502 15.5388 2.77736 14.8564 4.1827C14.4249 5.07119 14.2354 5.93145 14.1523 6.49961C13.6825 6.09013 12.8631 5.46697 11.6434 4.84336C9.78007 3.89051 6.57972 2.75473 1.91543 2.75473C1.46195 2.75473 0.996112 2.76546 0.530819 2.78664C0.424976 2.79151 0.3286 2.84912 0.274236 2.94009C0.219872 3.03106 0.214824 3.1433 0.260893 3.23878C1.25639 5.30622 3.39786 6.52062 4.79193 7.12196C4.02705 7.32463 3.20979 7.72005 2.95384 8.34302C2.82393 8.65929 2.79057 9.15632 3.36928 9.72818C4.21891 10.5677 5.21774 11.0778 6.09784 11.3875C5.40833 11.5102 4.85775 11.7208 4.67924 12.0712C4.61135 12.2047 4.53391 12.4786 4.77841 12.8147C5.95052 14.4265 8.75986 15.0532 10.0056 15.1555C9.84759 15.5309 9.51843 16.1407 8.88275 16.7445C7.52446 18.0346 5.38272 18.7165 2.68905 18.7166C2.68878 18.7166 2.68851 18.7166 2.68824 18.7166C1.95627 18.7166 1.17065 18.667 0.352942 18.5691C0.217889 18.5531 0.087524 18.6252 0.0297342 18.7485C-0.0280555 18.8718 -0.000287591 19.0182 0.0986131 19.1117C3.64975 22.47 7.68115 24.2455 11.7571 24.2461C11.7579 24.2461 11.7584 24.2461 11.7592 24.2461C16.2464 24.2461 20.6399 22.0398 23.5116 18.3443C26.069 15.0531 27.0487 11.1139 26.2217 7.49105C26.7741 7.25458 27.9937 6.55533 28.9629 4.73211C29.0307 4.60463 29.0033 4.4474 28.8964 4.35039Z" fill="black"/>
</svg>
