<svg width="29" height="29" viewBox="0 0 29 29" fill="none" xmlns="http://www.w3.org/2000/svg">
<g clip-path="url(#clip0)">
<path d="M14.5 0.604187C6.48875 0.604187 0 6.98419 0 14.8529C0 21.1495 4.15425 26.4891 9.91437 28.3717C10.6394 28.5058 10.9052 28.0648 10.9052 27.6866C10.9052 27.3482 10.8931 26.4516 10.8871 25.2639C6.85367 26.123 6.003 23.3523 6.003 23.3523C5.34325 21.7077 4.38987 21.2679 4.38987 21.2679C3.07642 20.3846 4.49137 20.4027 4.49137 20.4027C5.94742 20.5018 6.71229 21.8709 6.71229 21.8709C8.00521 24.0495 10.1065 23.4199 10.9354 23.0562C11.0659 22.1343 11.4393 21.5071 11.8537 21.1507C8.63354 20.7942 5.249 19.569 5.249 14.1097C5.249 12.5546 5.81087 11.2834 6.74129 10.2866C6.57817 9.92648 6.08879 8.47769 6.86817 6.51535C6.86817 6.51535 8.08254 6.13352 10.8557 7.97623C12.0157 7.65965 13.2482 7.50256 14.4807 7.49531C15.7132 7.50256 16.9457 7.65965 18.1057 7.97623C20.8607 6.13352 22.075 6.51535 22.075 6.51535C22.8544 8.47769 22.365 9.92648 22.22 10.2866C23.1444 11.2834 23.7063 12.5546 23.7063 14.1097C23.7063 19.5835 20.3169 20.7882 17.0907 21.1386C17.5982 21.5664 18.0694 22.44 18.0694 23.7752C18.0694 25.6819 18.0513 27.2141 18.0513 27.6769C18.0513 28.0503 18.305 28.4961 19.0482 28.3536C24.8494 26.4831 29 21.1398 29 14.8529C29 6.98419 22.5076 0.604187 14.5 0.604187Z" fill="black"/>
</g>
<defs>
<clipPath id="clip0">
<rect width="29" height="29" fill="white"/>
</clipPath>
</defs>
</svg>
