<?xml version="1.0"?>
<svg xmlns="http://www.w3.org/2000/svg" xmlns:xlink="http://www.w3.org/1999/xlink" version="1.1" id="Capa_1" x="0px" y="0px" width="512px" height="512px" viewBox="0 0 27.555 27.555" style="enable-background:new 0 0 27.555 27.555;" xml:space="preserve"><g><g>
	<path d="M13.777,0C7.108,0,1.701,5.406,1.701,12.076c0,3.45,1.454,6.553,3.773,8.752L5.07,27.555l5.736-3.785   c0.952,0.24,1.944,0.383,2.971,0.383c6.67,0,12.076-5.408,12.076-12.076C25.854,5.406,20.447,0,13.777,0z M17.844,5.915h1.406   l-0.99,4.112h-1.008L17.844,5.915z M17.59,10.481c0.444,0,0.754,0.318,0.754,0.763c0,0.518-0.381,0.89-0.891,0.89   c-0.445,0-0.734-0.317-0.734-0.744C16.717,10.908,17.082,10.481,17.59,10.481z M16.08,5.661c0.381,0,0.654,0.254,0.654,0.645   c0,0.463-0.354,0.735-0.771,0.735c-0.363,0-0.636-0.245-0.636-0.636C15.336,5.96,15.68,5.661,16.08,5.661z M16.452,7.594   l-0.844,4.439h-1.307l0.844-4.439H16.452z M9.465,5.915h1.308l-0.454,2.388h2.225l0.454-2.388h1.308l-1.162,6.119h-1.308   l0.481-2.569h-2.215l-0.49,2.569H8.304L9.465,5.915z M13.777,20.229c-3.335,0-6.039-2.646-6.039-4.17   c0-1.525,2.703,0.062,6.039,0.062c3.335,0,6.038-1.588,6.038-0.062C19.815,17.582,17.112,20.229,13.777,20.229z" data-original="#000000" class="active-path" data-old_color="#000000" fill="#FF4133"/>
</g></g> </svg>
