<svg width="29" height="29" viewBox="0 0 29 29" fill="none" xmlns="http://www.w3.org/2000/svg">
<path d="M3.86528 0C1.73555 0 0.00155934 1.73366 0 3.86506C0 5.99646 1.73399 7.73044 3.86528 7.73044C5.99579 7.73044 7.72889 5.99646 7.72889 3.86506C7.72889 1.73388 5.99568 0 3.86528 0Z" fill="black"/>
<path d="M6.76619 9.28345H0.96387C0.687866 9.28345 0.463989 9.50721 0.463989 9.78344V28.4594C0.463989 28.7355 0.687866 28.9592 0.96387 28.9592H6.76608C7.04219 28.9592 7.26607 28.7354 7.26607 28.4594V9.78344C7.26618 9.5071 7.0423 9.28345 6.76619 9.28345Z" fill="black"/>
<path d="M21.5995 9.06357C19.4762 9.06357 17.6102 9.71014 16.4715 10.7645V9.78343C16.4715 9.5072 16.2477 9.28344 15.9715 9.28344H10.4057C10.1296 9.28344 9.9057 9.5072 9.9057 9.78343V28.4593C9.9057 28.7355 10.1296 28.9592 10.4057 28.9592H16.2024C16.4786 28.9592 16.7024 28.7354 16.7024 28.4593V19.2195C16.7024 16.5684 17.1901 14.9251 19.6236 14.9251C22.0212 14.928 22.2007 16.6901 22.2007 19.3778V28.4593C22.2007 28.7355 22.4246 28.9592 22.7008 28.9592H28.5002C28.7762 28.9592 29.0001 28.7354 29.0001 28.4593V18.2148C29 13.9541 28.1588 9.06357 21.5995 9.06357Z" fill="black"/>
</svg>
